<?xml version="1.0" encoding="UTF-8"?>
<svg xmlns="http://www.w3.org/2000/svg" viewBox="0 0 812.69 207.16">
  <defs>
    <style>
      .cls-1 {
        fill: #fff;
      }

      .cls-2 {
        fill: #ffa9d8;
        stroke: #000;
        stroke-miterlimit: 10;
      }
    </style>
  </defs>
  <g id="Pupille">
    <path d="m438.3,42.46c-10.12-1.97-20.8-.54-31.11,6.1-24,15.46-25.43,49.88-23.01,71.84,1.01,9.17,2.84,18.44,8.01,26.55,5.18,8.11,14.18,14.97,25.37,16.74,10.03,1.58,20.59-1.04,29.72-5.07,27.47-12.11,44.94-37.9,42.43-62.63-1.98-19.54-24.77-48.34-51.42-53.54Z"/>
  </g>
  <g id="Text">
    <path class="cls-2" d="m90.28,122.11c3.51-.02,6.89-1.28,10.38-1.57,3.21-.26,6.54.17,9.31,1.9,5.23,3.27,7.69,9.09,8.16,15.05,1.65,20.73-37.5,31.85-47.46,32.74-36.05,3.22-61.46-26.8-67.9-59.53C-4.01,76.18,10.73,34.88,50.64,31.32c20.31-1.81,41.99.46,43.22,14.21.3,3.33-.19,6.76-1.85,9.7-1.68,2.97-4.01,4.57-7.11,5.82s-6.43,2.06-9.79,2.34c-1.16.1-3.89.01-4.18,1.55-.52,2.68,4.77,1.42,5.94,1.33,2.71-.21,5.43-.43,8.14-.21,4.69.37,9.4,1.44,13.59,3.64,8.14,4.29,12.47,12.42,13.17,21.41.51,6.46-1.67,12.73-5.94,17.57-2.57,2.91-5.79,5.01-9.17,6.85-1.2.65-10.14,4.33-8.45,6.06.44.45,1.13.52,1.76.53.1,0,.2,0,.3,0Z"/>
    <g>
      <path class="cls-1" d="m81.14,42.44c-.28-3.19-7.76-5.93-16.99-5.91,10.77,1.45,13.74,7.81,16.13,7.59.6-.05.94-.69.85-1.68Z"/>
      <path class="cls-1" d="m92.63,83.37c.8-.07,1.11-1.1.98-2.5-.39-4.38-10.01-8.74-21.67-8.9,13.84,2.18,17.7,11.67,20.69,11.4Z"/>
      <path class="cls-1" d="m106.61,134.31c.6-.05.94-.69.85-1.68-.28-3.19-7.76-5.93-16.99-5.91,10.77,1.45,13.74,7.81,16.13,7.59Z"/>
    </g>
    <path class="cls-2" d="m532.5,68.91c-3.02-12.13-12.39-23.52-20.84-32.44-8.94-9.43-19.22-17.8-30.42-24.42-17.2-10.17-41.6-13.85-62.15-9.38-18.15,3.95-33.17,11.85-45.92,24.17-25.27,24.41-39.19,58.65-35.12,93.75.14,1.23.31,2.46.48,3.68,2.67,18.44,8.38,33.54,17.47,46.16,10.68,14.84,26.67,25.86,45.03,31.03,20.66,5.82,45.46,5.39,66.17.09,17.61-4.5,33.37-14.61,44.89-28.63,15.38-18.71,23.16-43.35,24.07-67.97.45-12.27-.8-24.54-3.67-36.06Zm-5.33,38.72c-.61,3.94-4.37,8.98-6.04,11.47-26.87,39.88-85.51,30.78-121.98,11.39-4.69-2.5-9.25-5.25-13.61-8.28-7.29-5.07-14.08-10.86-20.2-17.29-5-5.25-13.95-10.56-17.01-17.12-2.86-6.13,7.01-8.4,11.21-10.55,10.07-5.15,20.2-10.33,31.01-13.66,25.5-7.87,53.9-4.79,77.87,6.95,11.19,5.48,21.38,12.7,31.85,19.41,5.23,3.35,10.53,6.64,16.07,9.44,2.9,1.46,8.84,2.11,10.49,5.27.45.86.52,1.88.35,2.99Z"/>
    <path class="cls-2" d="m129.76,108.91c-27.51-.58-40.79-20.25-42.08-37.79-1.28-17.35,7.44-24.21,19.6-25.1,23.53-1.74,34.39,12.3,40.4,31.3-4.82-21.9.47-39.73,20.41-41.2,14.16-1.05,21.86,11.02,22.84,24.18,3.58,48.45-6.54,117.76-50.41,121-23.53,1.74-32.02-12.87-32.88-24.44-1.78-24.13,9.68-37.2,22.12-47.94Z"/>
    <path class="cls-2" d="m255.37,139.52c.21.11.46.18.69.23,2.58.57,5.13.14,7.74.29s5.23.66,7.63,1.72c7.09,3.12,9.92,10.19,9.76,17.6-.2,20.79-40.19,28.39-50.18,28.39-29.09,0-48.49-33.38-54.65-58.4-4.94-20.07-3.75-43.99,5.64-62.7,7.86-15.67,25.47-19.05,41.41-19.05,20.39,0,41.79,4.2,41.79,17.99,0,5.68-2.47,11-7.53,13.83-2.4,1.34-5.36,1.3-8.03,1.45-1.3.07-6.49-.11-6.07,2.14.1.53.49.96.95,1.23,1.22.72,2.53.55,3.88.54,1.83-.01,3.67.05,5.48.33,4.79.75,9.55,2.19,13.67,4.8,7.82,4.95,11.62,13.54,11.45,22.64-.11,6.02-2.38,11.69-6.55,16.05-2.57,2.68-5.69,4.78-9.01,6.43-2.43,1.22-5.33,1.18-7.76,2.4-.6.3-1.1,1.03-.79,1.63.1.2.28.34.48.44Z"/>
    <path class="cls-2" d="m315.18,91.97c21.59,1,50.58,5,50.58,38.79,0,30.79-16.79,41.79-38.39,41.79-43.39,0-64.38-48.58-64.38-93.57,0-28.79,11.4-57.58,47.18-57.58,26.59,0,45.79,14,45.79,37.19s-15,31.79-40.79,32.19c-1.37.04-1.31,1.18,0,1.2Z"/>
    <path class="cls-2" d="m541.86,147.17c.31,7.92-.56,31.42-17.98,28.98-22.77-3.18-24.97-39.43-18-89.32,2.27-16.24,8.12-53.78,27.33-51.09,23.76,3.32,31.38,25.38,35.75,41.74.21,1.02,1.21,1.02.99.14-1.88-13.99-1.11-39.72,17.7-37.09,31.09,4.35,28.4,81.29,25.39,102.87-3.21,22.97-14.97,42.12-38.73,38.8s-27.4-20.59-31.07-34.83c-.4-1.26-1.41-.69-1.38-.19Z"/>
    <path class="cls-2" d="m609.1,114.17c-2-18,1.8-26.79,11.8-32.39-4.8-1-17.99-3.8-17.99-22.99,0-23.79,24.99-30.39,42.79-30.39,52.38,0,73.58,41.99,73.58,79.77s-16.2,69.78-53.18,70.18c-32.59.4-53.58-31.39-56.98-64.18Zm51.38-10c0-3.4-4.4-8-8.6-8-2.4,0-5.2,1.4-5.2,4.4,0,3.6,3.4,7.6,8.2,7.6,4,0,5.6-2,5.6-4Z"/>
    <path class="cls-2" d="m736.93,99.42c-25.86-9.4-32.1-32.3-27.68-49.33,4.37-16.84,14.83-20.52,26.64-17.46,22.84,5.93,28.6,22.71,28.18,42.64,2.48-22.28,13.24-37.46,32.59-32.44,14.74,3.83,14.75,17.54,14.35,30.03-.53,16.19-4.5,32.27-11.65,46.81-7.62,15.5-18.81,29.21-32.43,39.82-11.9,9.27-27.93,15.86-43.1,11.92-22.83-5.93-26.18-22.5-23.26-33.72,6.08-23.42,21.14-32.1,36.38-38.27Z"/>
  </g>
  <g id="Highlight">
    <path class="cls-1" d="m481.91,31.32c3.21,1.87,6.09,4.03,8.33,6.61,1.85,2.14,6.11,8.83,1.06,9.98-2.5.57-5.4-1.84-6.77-3.45-3.51-4.15-5.4-9.02-9.37-12.98-3.76-3.75-8.33-6.85-13.49-8.85,6.34,2.45,13.92,5.01,20.25,8.69Z"/>
    <path class="cls-1" d="m382.7,150.04c-2.82-1.24-5.42-2.77-7.56-4.76-1.77-1.64-6.1-6.99-2.24-8.63,1.91-.81,4.56.93,5.88,2.18,3.37,3.21,5.56,7.24,9.29,10.22,3.52,2.82,7.59,4.96,11.99,6.06-5.39-1.35-11.79-2.63-17.35-5.07Z"/>
    <path class="cls-1" d="m129.58,63.01c-.4-5.38-9.6-10.52-21.68-11.23,14.64,2.73,17.68,14.13,20.67,13.91.8-.06,1.12-1.09,1.01-2.68Z"/>
    <path class="cls-1" d="m180.59,56.04c-.35-4.79-6.75-9.93-14.64-10.95,9.65,3.1,12.03,13.55,14.02,13.4.4-.03.72-1.06.62-2.45Z"/>
    <path class="cls-1" d="m252.8,61.39c0-3.2-7.2-6.6-16.39-7.4,10.6,2.4,13,9,15.4,9,.6,0,1-.6,1-1.6Z"/>
    <path class="cls-1" d="m260.6,103.17c.8,0,1.2-1,1.2-2.4,0-4.4-9.2-9.6-20.79-10.8,13.6,3.4,16.59,13.2,19.59,13.2Z"/>
    <path class="cls-1" d="m269.99,155.16c.6,0,1-.6,1-1.6,0-3.2-7.2-6.6-16.4-7.4,10.6,2.4,13,9,15.4,9Z"/>
    <path class="cls-1" d="m340.77,41.59c0-5.6-13.59-11.4-30.99-12.79,20.19,4,24.59,15.59,29.19,15.59,1.2,0,1.8-1.2,1.8-2.8Z"/>
    <path class="cls-1" d="m346.97,114.16c.8,0,1.2-1.2,1.2-2.8,0-5.4-9-11.6-20.59-13,13.59,4,16.39,15.79,19.39,15.79Z"/>
    <path class="cls-1" d="m550.23,54.06c.72-5.15-7.16-12.31-18.85-15.35,13.34,5.7,14.13,17.32,17.3,17.76.59.08,1.33-.82,1.55-2.41Z"/>
    <path class="cls-1" d="m601.37,59.39c.69-4.95-4.84-11.58-13.36-14.18,9.57,5.17,9.83,16.31,12.21,16.65.4.06.93-.88,1.15-2.46Z"/>
    <path class="cls-1" d="m641.5,102.97c-.6,0-.8.8-.8,2,0,3.8,5.8,8.2,13.2,9.2-8.8-2.8-10.6-11.2-12.4-11.2Z"/>
    <path class="cls-1" d="m688.48,53.99c0-7.4-16.59-15.79-38.59-17.79,25.99,5.4,30.39,21.59,36.39,21.59,1.4,0,2.2-1.6,2.2-3.8Z"/>
    <path class="cls-1" d="m751.53,55.91c1.36-5.23-5.7-13.05-16.91-17.61,12.98,7.29,12.19,19.07,15.1,19.83.77.2,1.41-.67,1.81-2.21Z"/>
    <path class="cls-1" d="m802.07,65.73c1.21-4.64-3.19-11.57-10.34-15.08,8.14,6.04,7.03,16.7,8.96,17.2.39.1,1.03-.77,1.38-2.12Z"/>
    <path class="cls-1" d="m451.68,78c2.51,1.58,5.12,4.08,6.75,6,1.35,1.59,4.3,6.37-.03,6.5-2.14.06-4.35-1.82-5.34-3.02-2.55-3.07-3.69-6.4-6.64-9.41-2.8-2.85-6.33-5.37-10.46-7.27,5.07,2.32,10.78,4.09,15.72,7.2Z"/>
  </g>
  <g id="Wimpern">
    <path d="m358.06,22.15c.16-1.73.72-3.75,2.54-4.12.84-.17,1.72.12,2.4.65,1.26.99,1.77,2.51,2.25,3.98,1.24,3.8,2.47,7.6,3.78,11.38,1.6,4.59,3.33,9.13,5.37,13.54,1.03,2.22,2.13,4.4,3.32,6.53.3.53.61,1.05.92,1.56.19.31.14.59-.29.54-.62-.07-1.2-.7-1.7-1.03-.68-.45-1.36-.91-2.01-1.4-3.36-2.47-6.4-5.38-8.97-8.67-2.56-3.27-4.66-6.91-6.03-10.83-1.35-3.88-1.96-8.03-1.58-12.13Z"/>
    <path d="m492.51,182.9c-.12,1.18-.59,2.56-2.08,3.02-1.19.37-2.61-.05-3.48-.74s-1.31-1.62-1.72-2.52c-2-4.29-3.96-8.59-6.26-12.8-1.17-2.13-2.42-4.24-3.8-6.31-.62-.92-4.3-4.1-3.38-5.14.81-.93,8.34,4.06,9.36,4.8,5.88,4.26,10.42,9.85,11.29,16.01.17,1.22.2,2.46.07,3.68Z"/>
    <path d="m525.36,55.25c.74-1.34,1.33-3.06.48-4.3-.68-1-2.09-1.26-3.27-.95s-2.17,1.09-3.14,1.85c-4.73,3.73-9.44,7.49-14.37,10.96-2.46,1.73-4.98,3.39-7.57,4.92-1.35.8-2.71,1.57-4.1,2.29-1.39.73-2.45,1.81-.34,1.83,1.75.02,3.58-.18,5.31-.38,3.65-.43,7.26-1.31,10.68-2.65,6.71-2.64,12.79-7.18,16.3-13.58Z"/>
    <path d="m351.62,152.81c-.53,1.43-.86,3.22.17,4.32.82.89,2.26.93,3.38.44s1.98-1.41,2.82-2.3c4.16-4.45,8.3-8.93,12.71-13.14,2.17-2.07,4.4-4.07,6.72-5.97.69-.56,5.85-3.75,4.33-4.65-.38-.22-1.95.29-2.39.38-1.67.31-3.31.72-4.93,1.23-3.36,1.04-6.59,2.48-9.59,4.32-5.86,3.6-10.82,8.83-13.21,15.36Z"/>
    <path d="m401.4,33.89c-3.74-5.33-5.14-10.39-4.35-16.82.16-1.32.98-2.37,2.2-2.88,2.27-.95,4,.55,4.86,2.19,1.05,2.01,1.53,3.58,1.83,5.87.41,3.07.65,6.18,1.34,9.2.79,3.5,1.88,7.07,3.15,10.42.17.45.47.87.57,1.3.1.43-.27.35-.53.17-.26-.19-.34-.34-.64-.62s-.72-.64-1.09-1.01c-.76-.75-1.43-1.33-2.23-2.2-1.58-1.71-3.78-3.72-5.11-5.61Z"/>
    <path d="m451.4,188.98c-.19,1.84-.49,3.71-1.39,5.3-.9,1.58-2.55,2.83-4.3,2.72-1.8-.11-3.32-1.63-4-3.39s-.66-3.72-.52-5.61c.39-5.03,1.64-9.93,2.54-14.89.58-3.21,1.02-6.48.97-9.75,0-.73-.68-4.11.05-4.46.69-.32,1.76,2.37,2.05,2.96,2.62,5.27,4.15,11.11,4.67,17.02.3,3.35.27,6.74-.08,10.09Z"/>
    <path d="m432.29,11.93c.17-1.84.45-3.72,1.35-5.31.89-1.59,2.52-2.85,4.28-2.75,1.81.1,3.33,1.6,4.03,3.35.69,1.75.69,3.71.56,5.6-.35,5.03-1.56,9.95-2.41,14.91-.56,3.22-.96,6.49-.89,9.76.02.73.72,4.11,0,4.46-.68.33-1.78-2.36-2.08-2.95-2.66-5.25-4.25-11.08-4.82-16.98-.32-3.35-.32-6.74,0-10.09Z"/>
    <path d="m401.78,161.75c-4.07,3.94-6.44,8.98-6.06,13.99.13,1.68.87,3.64,2.97,4.15,1.82.44,3.75-.49,4.96-1.63,2.43-2.29,3.08-5.37,3.32-8.31s.14-5.95,1.39-8.74c1.4-3.1,4.17-4.76,7.33-6.73-1.05-1.18-6.05,1.78-7.12,2.37-2.54,1.39-4.85,3.02-6.78,4.9Z"/>
    <path d="m485.72,46.16c4.81-3.65,8.13-8.78,8.69-14.36.19-1.87-.19-4.15-2.19-5.07-1.74-.8-3.84-.1-5.26.94-2.86,2.1-4.09,5.38-4.88,8.58-.78,3.19-1.26,6.53-3.03,9.38-1.98,3.17-5.06,4.53-8.59,6.16.83,1.47,6.39-.93,7.57-1.39,2.8-1.09,5.41-2.5,7.7-4.23Z"/>
  </g>
</svg>